<?xml version="1.0" encoding="utf-8"?>
<!-- Generator: Adobe Illustrator 28.0.0, SVG Export Plug-In . SVG Version: 6.00 Build 0)  -->
<svg version="1.1" id="圖層_1" xmlns="http://www.w3.org/2000/svg" xmlns:xlink="http://www.w3.org/1999/xlink" x="0px" y="0px"
	 viewBox="0 0 493.42 369.22" style="enable-background:new 0 0 493.42 369.22;" xml:space="preserve">
<style type="text/css">
	.st0{fill:#FF5E5E;}
	.st1{fill:#FFAA4A;}
	.st2{fill:#6267FF;}
</style>
<g>
	<path class="st0" d="M0,209.47c0-41.17-0.02-132.33,0.04-173.5c0.01-4.35,0.19-8.75,0.86-13.03c2-12.66,9.3-19.84,22.05-21.97
		c3.06-0.51,6.19-0.87,9.29-0.88c23.83-0.07,47.66-0.1,71.5,0.04c3.82,0.02,7.72,0.6,11.45,1.48c11.53,2.7,18.02,9.87,19.71,21.63
		c0.55,3.81,0.8,7.7,0.8,11.55c0.04,83.21,0.04,216.42,0,299.62c0,3.6-0.25,7.23-0.71,10.81c-1.68,13.09-9.22,20.88-22.28,23.08
		c-2.94,0.5-5.94,0.86-8.92,0.87c-23.96,0.07-47.91,0.08-71.87,0c-3.22-0.01-6.49-0.37-9.65-0.99c-13.67-2.68-21-11.32-22.03-25.84
		c-0.23-3.23-0.24-6.48-0.24-9.72C0,291.55,0,250.51,0,209.47z"/>
	<g>
		<path class="st1" d="M315.41,123.87c0,22.59,0.04,95.17-0.03,117.76c-0.01,4.1-0.12,8.26-0.78,12.29
			c-2.26,13.8-9.93,21.09-23.78,22.82c-3.95,0.49-7.96,0.76-11.94,0.77c-20.97,0.07-41.94,0.09-62.91-0.01
			c-4.35-0.02-8.77-0.22-13.04-0.98c-15.05-2.69-22.19-11.49-23.16-28.07c-0.1-1.74-0.09-3.49-0.09-5.24
			c0-46.3-0.02-162.59,0.03-208.89c0-3.85,0.25-7.75,0.86-11.55c1.96-12.32,9.64-19.8,22.28-21.83c3.19-0.51,6.45-0.86,9.67-0.87
			c23.46-0.07,46.93-0.13,70.39,0.05c4.56,0.04,9.25,0.68,13.65,1.88c11.76,3.22,18.19,12.04,18.59,25.88
			c0.41,13.96,0.22,27.95,0.25,41.92C315.43,81.15,315.41,112.51,315.41,123.87z"/>
		<g>
			<g>
				<path class="st2" d="M493.41,49.48c0-41.17,0.02,27.67-0.04-13.5c-0.01-4.35-0.19-8.75-0.86-13.03
					c-2-12.66-9.3-19.84-22.05-21.97c-3.06-0.51-6.19-0.87-9.29-0.88c-23.83-0.07-47.66-0.1-71.5,0.04
					c-3.82,0.02-7.72,0.6-11.45,1.48c-11.53,2.7-18.02,9.87-19.71,21.63c-0.55,3.81-0.8,7.7-0.8,11.55
					c-0.04,83.21-0.04,36.42,0,119.62c0,3.6,0.25,7.23,0.71,10.81c1.68,13.09,9.22,20.88,22.28,23.08c2.94,0.5,5.94,0.86,8.92,0.87
					c23.96,0.07,47.91,0.08,71.87,0c3.22-0.01,6.49-0.37,9.65-0.99c13.67-2.68,21-11.32,22.03-25.84c0.23-3.23,0.24-6.48,0.24-9.72
					C493.42,111.57,493.41,90.53,493.41,49.48z"/>
			</g>
		</g>
	</g>
</g>
</svg>
