<?xml version="1.0" encoding="utf-8"?>
<!-- Generator: Adobe Illustrator 28.0.0, SVG Export Plug-In . SVG Version: 6.00 Build 0)  -->
<svg version="1.1" id="圖層_1" xmlns="http://www.w3.org/2000/svg" xmlns:xlink="http://www.w3.org/1999/xlink" x="0px" y="0px"
	 viewBox="0 0 448 512" style="enable-background:new 0 0 448 512;" xml:space="preserve">
<path d="M170.5,51.6l-19,28.4h145l-19-28.4c-1.5-2.2-4-3.6-6.7-3.6h-93.7c-2.7,0-5.2,1.3-6.7,3.6H170.5z M317.5,25l36.7,55H368h48h8
	c13.3,0,24,10.7,24,24s-10.7,24-24,24h-8v304c0,44.2-35.8,80-80,80H112c-44.2,0-80-35.8-80-80V128h-8c-13.3,0-24-10.7-24-24
	s10.7-24,24-24h8h48h13.8l36.7-55.1C140.9,9.4,158.4,0,177.1,0h93.7c18.7,0,36.2,9.4,46.6,24.9L317.5,25z M80,128v304
	c0,17.7,14.3,32,32,32h224c17.7,0,32-14.3,32-32V128H80z"/>
</svg>
